STARTFONT 2.1
FONT -DEC-NarkissTam-Bold-O-Normal--8-80-75-75-P-50-ISO8859-8
SIZE 8 75 75
FONTBOUNDINGBOX 9 9 0 -2

STARTPROPERTIES 26
FONTNAME_REGISTRY ""
FAMILY_NAME "NarkissTam"
FOUNDRY "DEC"
WEIGHT_NAME "Bold"
SETWIDTH_NAME "Normal"
SLANT "O"
ADD_STYLE_NAME ""
PIXEL_SIZE 8
RESOLUTION_X 75
RESOLUTION_Y 75
SPACING "P"
AVERAGE_WIDTH 50
CHARSET_REGISTRY "ISO8859"
CHARSET_ENCODING "8"
CHARSET_COLLECTIONS "ASCII ISO8859-8 "
FULL_NAME "NarkissTam Bold Oblique"
COPYRIGHT "Digital Israel"
CAP_HEIGHT 6
X_HEIGHT 5
_DEC_DEVICE_FONTNAMES "PS=NarkissTam-BoldOblique-ISOLatinHebrew"
QUAD_WIDTH 5
POINT_SIZE 80
WEIGHT 10
DEFAULT_CHAR 0
FONT_DESCENT 2
FONT_ASCENT 8
ENDPROPERTIES

CHARS 152

STARTCHAR space
ENCODING 32
SWIDTH 240 0
DWIDTH 2 0
BBX 1 1 0 0
BITMAP
00
ENDCHAR

STARTCHAR exclam
ENCODING 33
SWIDTH 360 0
DWIDTH 3 0
BBX 3 6 0 0
BITMAP
20
60
60
40
00
80
ENDCHAR

STARTCHAR quotedbl
ENCODING 34
SWIDTH 600 0
DWIDTH 5 0
BBX 4 2 1 4
BITMAP
50
A0
ENDCHAR

STARTCHAR numbersign
ENCODING 35
SWIDTH 720 0
DWIDTH 6 0
BBX 5 6 1 0
BITMAP
50
F8
50
F0
A0
A0
ENDCHAR

STARTCHAR dollar
ENCODING 36
SWIDTH 600 0
DWIDTH 5 0
BBX 5 7 0 -1
BITMAP
10
38
60
30
B0
E0
40
ENDCHAR

STARTCHAR percent
ENCODING 37
SWIDTH 840 0
DWIDTH 7 0
BBX 6 6 1 0
BITMAP
64
A8
D0
2C
54
98
ENDCHAR

STARTCHAR ampersand
ENCODING 38
SWIDTH 720 0
DWIDTH 6 0
BBX 6 6 0 0
BITMAP
10
28
30
74
D8
6C
ENDCHAR

STARTCHAR quoteright
ENCODING 39
SWIDTH 240 0
DWIDTH 2 0
BBX 2 3 0 3
BITMAP
40
40
80
ENDCHAR

STARTCHAR parenleft
ENCODING 40
SWIDTH 480 0
DWIDTH 4 0
BBX 4 8 0 -2
BITMAP
30
60
60
C0
C0
C0
C0
60
ENDCHAR

STARTCHAR parenright
ENCODING 41
SWIDTH 480 0
DWIDTH 4 0
BBX 4 8 0 -2
BITMAP
60
30
30
30
60
60
C0
80
ENDCHAR

STARTCHAR asterisk
ENCODING 42
SWIDTH 600 0
DWIDTH 5 0
BBX 3 3 2 3
BITMAP
40
E0
40
ENDCHAR

STARTCHAR plus
ENCODING 43
SWIDTH 600 0
DWIDTH 5 0
BBX 4 5 0 0
BITMAP
20
20
F0
40
40
ENDCHAR

STARTCHAR comma
ENCODING 44
SWIDTH 240 0
DWIDTH 2 0
BBX 2 3 0 -1
BITMAP
40
40
80
ENDCHAR

STARTCHAR minus
ENCODING 45
SWIDTH 720 0
DWIDTH 6 0
BBX 4 1 1 2
BITMAP
F0
ENDCHAR

STARTCHAR period
ENCODING 46
SWIDTH 240 0
DWIDTH 2 0
BBX 1 2 0 0
BITMAP
80
80
ENDCHAR

STARTCHAR slash
ENCODING 47
SWIDTH 480 0
DWIDTH 4 0
BBX 3 6 1 0
BITMAP
20
20
40
40
80
80
ENDCHAR

STARTCHAR zero
ENCODING 48
SWIDTH 600 0
DWIDTH 5 0
BBX 5 6 0 0
BITMAP
30
78
58
D8
F0
60
ENDCHAR

STARTCHAR one
ENCODING 49
SWIDTH 600 0
DWIDTH 5 0
BBX 3 6 1 0
BITMAP
20
E0
60
60
C0
C0
ENDCHAR

STARTCHAR two
ENCODING 50
SWIDTH 600 0
DWIDTH 5 0
BBX 5 6 0 0
BITMAP
30
58
18
70
C0
F0
ENDCHAR

STARTCHAR three
ENCODING 51
SWIDTH 600 0
DWIDTH 5 0
BBX 5 6 0 0
BITMAP
30
58
38
10
B0
60
ENDCHAR

STARTCHAR four
ENCODING 52
SWIDTH 600 0
DWIDTH 5 0
BBX 5 6 0 0
BITMAP
18
38
50
F8
20
20
ENDCHAR

STARTCHAR five
ENCODING 53
SWIDTH 600 0
DWIDTH 5 0
BBX 5 6 0 0
BITMAP
78
60
70
10
B0
60
ENDCHAR

STARTCHAR six
ENCODING 54
SWIDTH 600 0
DWIDTH 5 0
BBX 5 6 0 0
BITMAP
30
68
60
F0
D0
60
ENDCHAR

STARTCHAR seven
ENCODING 55
SWIDTH 600 0
DWIDTH 5 0
BBX 4 6 1 0
BITMAP
F0
30
20
60
C0
C0
ENDCHAR

STARTCHAR eight
ENCODING 56
SWIDTH 600 0
DWIDTH 5 0
BBX 5 6 0 0
BITMAP
30
58
78
F0
D0
60
ENDCHAR

STARTCHAR nine
ENCODING 57
SWIDTH 600 0
DWIDTH 5 0
BBX 5 6 0 0
BITMAP
30
58
78
18
B0
60
ENDCHAR

STARTCHAR colon
ENCODING 58
SWIDTH 240 0
DWIDTH 2 0
BBX 2 5 0 0
BITMAP
40
40
00
80
80
ENDCHAR

STARTCHAR semicolon
ENCODING 59
SWIDTH 240 0
DWIDTH 2 0
BBX 3 6 0 -1
BITMAP
20
20
00
40
40
80
ENDCHAR

STARTCHAR less
ENCODING 60
SWIDTH 600 0
DWIDTH 5 0
BBX 4 4 1 1
BITMAP
30
60
C0
60
ENDCHAR

STARTCHAR equal
ENCODING 61
SWIDTH 600 0
DWIDTH 5 0
BBX 5 3 0 1
BITMAP
78
00
F0
ENDCHAR

STARTCHAR greater
ENCODING 62
SWIDTH 720 0
DWIDTH 6 0
BBX 4 4 1 1
BITMAP
60
30
60
C0
ENDCHAR

STARTCHAR question
ENCODING 63
SWIDTH 600 0
DWIDTH 5 0
BBX 4 6 1 0
BITMAP
E0
30
E0
80
00
80
ENDCHAR

STARTCHAR at
ENCODING 64
SWIDTH 960 0
DWIDTH 8 0
BBX 7 7 0 -1
BITMAP
3C
62
5A
AA
BC
C0
78
ENDCHAR

STARTCHAR A
ENCODING 65
SWIDTH 720 0
DWIDTH 6 0
BBX 6 6 0 0
BITMAP
08
18
2C
7C
CC
CC
ENDCHAR

STARTCHAR B
ENCODING 66
SWIDTH 720 0
DWIDTH 6 0
BBX 6 6 0 0
BITMAP
78
6C
78
CC
D8
F0
ENDCHAR

STARTCHAR C
ENCODING 67
SWIDTH 720 0
DWIDTH 6 0
BBX 6 6 0 0
BITMAP
3C
6C
C0
C8
D8
70
ENDCHAR

STARTCHAR D
ENCODING 68
SWIDTH 720 0
DWIDTH 6 0
BBX 6 6 0 0
BITMAP
78
64
64
CC
D8
F0
ENDCHAR

STARTCHAR E
ENCODING 69
SWIDTH 600 0
DWIDTH 5 0
BBX 6 6 0 0
BITMAP
7C
60
78
C0
C0
F0
ENDCHAR

STARTCHAR F
ENCODING 70
SWIDTH 480 0
DWIDTH 4 0
BBX 5 6 0 0
BITMAP
78
60
70
C0
C0
C0
ENDCHAR

STARTCHAR G
ENCODING 71
SWIDTH 720 0
DWIDTH 6 0
BBX 6 6 0 0
BITMAP
3C
60
C0
DC
D8
78
ENDCHAR

STARTCHAR H
ENCODING 72
SWIDTH 720 0
DWIDTH 6 0
BBX 6 6 0 0
BITMAP
6C
6C
78
78
D8
D8
ENDCHAR

STARTCHAR I
ENCODING 73
SWIDTH 240 0
DWIDTH 2 0
BBX 2 6 0 0
BITMAP
40
40
40
80
80
80
ENDCHAR

STARTCHAR J
ENCODING 74
SWIDTH 600 0
DWIDTH 5 0
BBX 6 6 0 0
BITMAP
3C
18
18
D8
B0
60
ENDCHAR

STARTCHAR K
ENCODING 75
SWIDTH 720 0
DWIDTH 6 0
BBX 6 6 0 0
BITMAP
6C
68
70
F0
D8
D8
ENDCHAR

STARTCHAR L
ENCODING 76
SWIDTH 600 0
DWIDTH 5 0
BBX 4 6 0 0
BITMAP
60
60
60
C0
C0
F0
ENDCHAR

STARTCHAR M
ENCODING 77
SWIDTH 960 0
DWIDTH 8 0
BBX 9 6 0 0
BITMAP
6380
6300
7700
FE00
D600
D600
ENDCHAR

STARTCHAR N
ENCODING 78
SWIDTH 720 0
DWIDTH 6 0
BBX 7 6 0 0
BITMAP
66
64
74
F8
C8
C8
ENDCHAR

STARTCHAR O
ENCODING 79
SWIDTH 720 0
DWIDTH 6 0
BBX 6 6 0 0
BITMAP
38
6C
CC
CC
D8
70
ENDCHAR

STARTCHAR P
ENCODING 80
SWIDTH 720 0
DWIDTH 6 0
BBX 6 6 0 0
BITMAP
78
64
6C
F8
C0
C0
ENDCHAR

STARTCHAR Q
ENCODING 81
SWIDTH 720 0
DWIDTH 6 0
BBX 6 7 0 -1
BITMAP
38
6C
CC
CC
D8
70
08
ENDCHAR

STARTCHAR R
ENCODING 82
SWIDTH 720 0
DWIDTH 6 0
BBX 6 6 0 0
BITMAP
78
64
78
CC
D8
D8
ENDCHAR

STARTCHAR S
ENCODING 83
SWIDTH 720 0
DWIDTH 6 0
BBX 6 6 0 0
BITMAP
38
6C
70
38
D8
70
ENDCHAR

STARTCHAR T
ENCODING 84
SWIDTH 600 0
DWIDTH 5 0
BBX 5 6 1 0
BITMAP
F8
60
60
E0
C0
C0
ENDCHAR

STARTCHAR U
ENCODING 85
SWIDTH 720 0
DWIDTH 6 0
BBX 6 6 0 0
BITMAP
6C
6C
CC
CC
D8
70
ENDCHAR

STARTCHAR V
ENCODING 86
SWIDTH 720 0
DWIDTH 6 0
BBX 6 6 1 0
BITMAP
CC
C8
D8
D0
F0
60
ENDCHAR

STARTCHAR W
ENCODING 87
SWIDTH 960 0
DWIDTH 8 0
BBX 8 6 1 0
BITMAP
DB
DA
DE
EC
6C
6C
ENDCHAR

STARTCHAR X
ENCODING 88
SWIDTH 720 0
DWIDTH 6 0
BBX 6 6 0 0
BITMAP
6C
78
30
70
D8
D8
ENDCHAR

STARTCHAR Y
ENCODING 89
SWIDTH 720 0
DWIDTH 6 0
BBX 6 6 1 0
BITMAP
CC
D8
70
60
60
60
ENDCHAR

STARTCHAR Z
ENCODING 90
SWIDTH 720 0
DWIDTH 6 0
BBX 6 6 0 0
BITMAP
7C
0C
38
70
C0
F8
ENDCHAR

STARTCHAR bracketleft
ENCODING 91
SWIDTH 360 0
DWIDTH 3 0
BBX 4 8 0 -2
BITMAP
70
60
60
40
40
C0
C0
E0
ENDCHAR

STARTCHAR backslash
ENCODING 92
SWIDTH 480 0
DWIDTH 4 0
BBX 2 6 1 0
BITMAP
80
80
80
40
40
40
ENDCHAR

STARTCHAR bracketright
ENCODING 93
SWIDTH 360 0
DWIDTH 3 0
BBX 4 8 0 -2
BITMAP
70
30
30
20
20
60
60
E0
ENDCHAR

STARTCHAR asciicircum
ENCODING 94
SWIDTH 600 0
DWIDTH 5 0
BBX 4 3 1 3
BITMAP
30
70
D0
ENDCHAR

STARTCHAR underscore
ENCODING 95
SWIDTH 600 0
DWIDTH 5 0
BBX 4 1 0 -1
BITMAP
F0
ENDCHAR

STARTCHAR quoteleft
ENCODING 96
SWIDTH 360 0
DWIDTH 3 0
BBX 2 3 1 3
BITMAP
80
80
40
ENDCHAR

STARTCHAR a
ENCODING 97
SWIDTH 600 0
DWIDTH 5 0
BBX 5 5 0 0
BITMAP
70
18
78
D0
F8
ENDCHAR

STARTCHAR b
ENCODING 98
SWIDTH 600 0
DWIDTH 5 0
BBX 5 6 0 0
BITMAP
60
60
70
D8
D8
F0
ENDCHAR

STARTCHAR c
ENCODING 99
SWIDTH 480 0
DWIDTH 4 0
BBX 4 5 0 0
BITMAP
30
70
C0
F0
60
ENDCHAR

STARTCHAR d
ENCODING 100
SWIDTH 600 0
DWIDTH 5 0
BBX 6 6 0 0
BITMAP
0C
38
78
D8
D0
70
ENDCHAR

STARTCHAR e
ENCODING 101
SWIDTH 600 0
DWIDTH 5 0
BBX 5 5 0 0
BITMAP
30
68
F8
C0
70
ENDCHAR

STARTCHAR f
ENCODING 102
SWIDTH 240 0
DWIDTH 2 0
BBX 4 7 0 0
BITMAP
30
60
E0
40
40
80
80
ENDCHAR

STARTCHAR g
ENCODING 103
SWIDTH 600 0
DWIDTH 5 0
BBX 5 6 0 -1
BITMAP
38
58
D8
F0
30
E0
ENDCHAR

STARTCHAR h
ENCODING 104
SWIDTH 600 0
DWIDTH 5 0
BBX 5 6 0 0
BITMAP
60
70
78
58
D0
D0
ENDCHAR

STARTCHAR i
ENCODING 105
SWIDTH 240 0
DWIDTH 2 0
BBX 2 7 0 0
BITMAP
40
00
40
40
40
80
80
ENDCHAR

STARTCHAR j
ENCODING 106
SWIDTH 240 0
DWIDTH 2 0
BBX 3 9 0 -2
BITMAP
20
00
60
20
20
40
40
80
80
ENDCHAR

STARTCHAR k
ENCODING 107
SWIDTH 600 0
DWIDTH 5 0
BBX 5 6 0 0
BITMAP
60
68
70
60
F0
D8
ENDCHAR

STARTCHAR l
ENCODING 108
SWIDTH 240 0
DWIDTH 2 0
BBX 2 6 0 0
BITMAP
40
40
40
40
80
80
ENDCHAR

STARTCHAR m
ENCODING 109
SWIDTH 840 0
DWIDTH 7 0
BBX 7 5 0 0
BITMAP
74
7E
56
D4
D4
ENDCHAR

STARTCHAR n
ENCODING 110
SWIDTH 600 0
DWIDTH 5 0
BBX 5 5 0 0
BITMAP
70
78
58
D0
D0
ENDCHAR

STARTCHAR o
ENCODING 111
SWIDTH 600 0
DWIDTH 5 0
BBX 5 5 0 0
BITMAP
30
78
D8
F0
60
ENDCHAR

STARTCHAR p
ENCODING 112
SWIDTH 600 0
DWIDTH 5 0
BBX 6 6 0 -1
BITMAP
38
2C
6C
78
70
C0
ENDCHAR

STARTCHAR q
ENCODING 113
SWIDTH 600 0
DWIDTH 5 0
BBX 5 6 0 -1
BITMAP
38
58
D8
F0
70
30
ENDCHAR

STARTCHAR r
ENCODING 114
SWIDTH 360 0
DWIDTH 3 0
BBX 4 5 0 0
BITMAP
50
70
40
C0
C0
ENDCHAR

STARTCHAR s
ENCODING 115
SWIDTH 600 0
DWIDTH 5 0
BBX 5 5 0 0
BITMAP
38
60
30
B0
60
ENDCHAR

STARTCHAR t
ENCODING 116
SWIDTH 360 0
DWIDTH 3 0
BBX 4 6 0 0
BITMAP
20
F0
60
60
40
60
ENDCHAR

STARTCHAR u
ENCODING 117
SWIDTH 600 0
DWIDTH 5 0
BBX 5 5 0 0
BITMAP
48
48
50
F0
70
ENDCHAR

STARTCHAR v
ENCODING 118
SWIDTH 600 0
DWIDTH 5 0
BBX 4 5 1 0
BITMAP
D0
D0
D0
E0
40
ENDCHAR

STARTCHAR w
ENCODING 119
SWIDTH 720 0
DWIDTH 6 0
BBX 5 5 1 0
BITMAP
A8
A8
E8
F0
A0
ENDCHAR

STARTCHAR x
ENCODING 120
SWIDTH 480 0
DWIDTH 4 0
BBX 6 5 0 0
BITMAP
2C
38
30
70
D8
ENDCHAR

STARTCHAR y
ENCODING 121
SWIDTH 600 0
DWIDTH 5 0
BBX 5 6 0 -1
BITMAP
68
68
78
30
20
C0
ENDCHAR

STARTCHAR z
ENCODING 122
SWIDTH 480 0
DWIDTH 4 0
BBX 5 5 0 0
BITMAP
78
18
70
C0
F0
ENDCHAR

STARTCHAR braceleft
ENCODING 123
SWIDTH 480 0
DWIDTH 4 0
BBX 5 8 0 -2
BITMAP
18
30
20
C0
60
60
20
20
ENDCHAR

STARTCHAR bar
ENCODING 124
SWIDTH 360 0
DWIDTH 3 0
BBX 3 8 0 -2
BITMAP
20
20
20
40
40
80
80
80
ENDCHAR

STARTCHAR braceright
ENCODING 125
SWIDTH 480 0
DWIDTH 4 0
BBX 5 8 0 -2
BITMAP
20
20
30
30
18
20
60
C0
ENDCHAR

STARTCHAR asciitilde
ENCODING 126
SWIDTH 600 0
DWIDTH 5 0
BBX 5 2 0 2
BITMAP
68
B0
ENDCHAR

STARTCHAR cent
ENCODING 162
SWIDTH 720 0
DWIDTH 6 0
BBX 5 7 1 -1
BITMAP
08
30
68
C0
D0
60
80
ENDCHAR

STARTCHAR sterling
ENCODING 163
SWIDTH 720 0
DWIDTH 6 0
BBX 5 6 0 0
BITMAP
38
60
60
F0
48
F0
ENDCHAR

STARTCHAR currency
ENCODING 164
SWIDTH 600 0
DWIDTH 5 0
BBX 5 5 0 1
BITMAP
48
70
50
70
90
ENDCHAR

STARTCHAR yen
ENCODING 165
SWIDTH 720 0
DWIDTH 6 0
BBX 6 6 0 0
BITMAP
5C
58
F8
20
F8
20
ENDCHAR

STARTCHAR brokenbar
ENCODING 166
SWIDTH 360 0
DWIDTH 3 0
BBX 3 7 0 -1
BITMAP
20
20
20
00
80
80
80
ENDCHAR

STARTCHAR section
ENCODING 167
SWIDTH 720 0
DWIDTH 6 0
BBX 6 8 0 -2
BITMAP
18
24
70
58
68
38
90
60
ENDCHAR

STARTCHAR dieresis
ENCODING 168
SWIDTH 360 0
DWIDTH 3 0
BBX 3 1 2 5
BITMAP
A0
ENDCHAR

STARTCHAR copyright
ENCODING 169
SWIDTH 960 0
DWIDTH 8 0
BBX 6 7 1 0
BITMAP
78
C4
BC
A4
BC
C4
78
ENDCHAR

STARTCHAR multiply
ENCODING 170
SWIDTH 600 0
DWIDTH 5 0
BBX 5 4 0 1
BITMAP
D8
70
70
D8
ENDCHAR

STARTCHAR guillemotleft
ENCODING 171
SWIDTH 720 0
DWIDTH 6 0
BBX 5 4 1 1
BITMAP
28
50
A0
50
ENDCHAR

STARTCHAR logicalnot
ENCODING 172
SWIDTH 720 0
DWIDTH 6 0
BBX 4 2 1 2
BITMAP
F0
10
ENDCHAR

STARTCHAR hyphen
ENCODING 173
SWIDTH 480 0
DWIDTH 4 0
BBX 3 1 1 2
BITMAP
E0
ENDCHAR

STARTCHAR registered
ENCODING 174
SWIDTH 960 0
DWIDTH 8 0
BBX 6 7 1 0
BITMAP
78
CC
B4
B4
AC
C4
78
ENDCHAR

STARTCHAR macron
ENCODING 175
SWIDTH 360 0
DWIDTH 3 0
BBX 3 1 2 5
BITMAP
E0
ENDCHAR

STARTCHAR degree
ENCODING 176
SWIDTH 360 0
DWIDTH 3 0
BBX 3 3 1 3
BITMAP
60
A0
C0
ENDCHAR

STARTCHAR plusminus
ENCODING 177
SWIDTH 600 0
DWIDTH 5 0
BBX 5 6 0 0
BITMAP
10
10
78
20
00
F0
ENDCHAR

STARTCHAR twosuperior
ENCODING 178
SWIDTH 240 0
DWIDTH 2 0
BBX 3 4 0 2
BITMAP
60
A0
40
E0
ENDCHAR

STARTCHAR threesuperior
ENCODING 179
SWIDTH 240 0
DWIDTH 2 0
BBX 3 4 0 2
BITMAP
E0
60
20
C0
ENDCHAR

STARTCHAR acute
ENCODING 180
SWIDTH 240 0
DWIDTH 2 0
BBX 2 2 1 5
BITMAP
40
80
ENDCHAR

STARTCHAR mu
ENCODING 181
SWIDTH 600 0
DWIDTH 5 0
BBX 6 6 0 -1
BITMAP
2C
2C
2C
78
68
C0
ENDCHAR

STARTCHAR paragraph
ENCODING 182
SWIDTH 720 0
DWIDTH 6 0
BBX 5 8 1 -2
BITMAP
78
D0
D0
50
50
A0
A0
A0
ENDCHAR

STARTCHAR periodcentered
ENCODING 183
SWIDTH 240 0
DWIDTH 2 0
BBX 1 2 1 2
BITMAP
80
80
ENDCHAR

STARTCHAR cedilla
ENCODING 184
SWIDTH 240 0
DWIDTH 2 0
BBX 3 2 0 -1
BITMAP
20
C0
ENDCHAR

STARTCHAR onesuperior
ENCODING 185
SWIDTH 240 0
DWIDTH 2 0
BBX 2 4 0 2
BITMAP
40
40
C0
C0
ENDCHAR

STARTCHAR divide
ENCODING 186
SWIDTH 600 0
DWIDTH 5 0
BBX 4 5 1 0
BITMAP
20
00
F0
00
40
ENDCHAR

STARTCHAR guillemotright
ENCODING 187
SWIDTH 720 0
DWIDTH 6 0
BBX 5 4 1 1
BITMAP
50
28
50
A0
ENDCHAR

STARTCHAR onequarter
ENCODING 188
SWIDTH 840 0
DWIDTH 7 0
BBX 7 7 0 -1
BITMAP
42
44
C8
D4
2C
5C
88
ENDCHAR

STARTCHAR onehalf
ENCODING 189
SWIDTH 840 0
DWIDTH 7 0
BBX 7 7 0 -1
BITMAP
42
44
C8
DC
34
48
9C
ENDCHAR

STARTCHAR threequarters
ENCODING 190
SWIDTH 840 0
DWIDTH 7 0
BBX 7 7 0 -1
BITMAP
E2
64
28
D4
2C
5C
08
ENDCHAR

STARTCHAR dblunderscore
ENCODING 223
SWIDTH 600 0
DWIDTH 5 0
BBX 5 6 0 -2
BITMAP
00
00
00
F8
00
F8
ENDCHAR

STARTCHAR aleph
ENCODING 224
SWIDTH 600 0
DWIDTH 5 0
BBX 5 5 0 0
BITMAP
58
58
E0
D0
D0
ENDCHAR

STARTCHAR beth
ENCODING 225
SWIDTH 600 0
DWIDTH 5 0
BBX 5 5 0 0
BITMAP
70
70
20
20
F0
ENDCHAR

STARTCHAR gimmel
ENCODING 226
SWIDTH 480 0
DWIDTH 4 0
BBX 4 5 0 0
BITMAP
70
70
20
E0
A0
ENDCHAR

STARTCHAR daleth
ENCODING 227
SWIDTH 600 0
DWIDTH 5 0
BBX 4 5 1 0
BITMAP
F0
F0
20
40
40
ENDCHAR

STARTCHAR he
ENCODING 228
SWIDTH 600 0
DWIDTH 5 0
BBX 5 5 0 0
BITMAP
78
78
10
D0
D0
ENDCHAR

STARTCHAR waw
ENCODING 229
SWIDTH 360 0
DWIDTH 3 0
BBX 3 5 0 0
BITMAP
60
60
20
40
40
ENDCHAR

STARTCHAR zayin
ENCODING 230
SWIDTH 480 0
DWIDTH 4 0
BBX 3 6 1 -1
BITMAP
E0
E0
40
80
80
00
ENDCHAR

STARTCHAR het
ENCODING 231
SWIDTH 480 0
DWIDTH 4 0
BBX 4 5 0 0
BITMAP
70
70
50
A0
A0
ENDCHAR

STARTCHAR teth
ENCODING 232
SWIDTH 600 0
DWIDTH 5 0
BBX 5 5 0 0
BITMAP
58
58
48
F0
F0
ENDCHAR

STARTCHAR yod
ENCODING 233
SWIDTH 360 0
DWIDTH 3 0
BBX 3 5 0 0
BITMAP
60
60
20
40
00
ENDCHAR

STARTCHAR kaphfinal
ENCODING 234
SWIDTH 600 0
DWIDTH 5 0
BBX 4 7 1 -1
BITMAP
00
F0
F0
20
20
40
40
ENDCHAR

STARTCHAR kaph
ENCODING 235
SWIDTH 600 0
DWIDTH 5 0
BBX 5 5 0 0
BITMAP
78
18
18
30
E0
ENDCHAR

STARTCHAR lamed
ENCODING 236
SWIDTH 480 0
DWIDTH 4 0
BBX 4 6 0 0
BITMAP
40
70
70
20
40
80
ENDCHAR

STARTCHAR memfinal
ENCODING 237
SWIDTH 600 0
DWIDTH 5 0
BBX 5 5 0 0
BITMAP
78
78
48
90
F0
ENDCHAR

STARTCHAR mem
ENCODING 238
SWIDTH 600 0
DWIDTH 5 0
BBX 5 5 0 0
BITMAP
58
78
58
90
B0
ENDCHAR

STARTCHAR nunfinal
ENCODING 239
SWIDTH 360 0
DWIDTH 3 0
BBX 3 6 0 -1
BITMAP
60
60
20
40
40
40
ENDCHAR

STARTCHAR nun
ENCODING 240
SWIDTH 480 0
DWIDTH 4 0
BBX 4 5 0 0
BITMAP
30
30
10
20
E0
ENDCHAR

STARTCHAR samekh
ENCODING 241
SWIDTH 600 0
DWIDTH 5 0
BBX 5 5 0 0
BITMAP
78
78
48
90
60
ENDCHAR

STARTCHAR ayin
ENCODING 242
SWIDTH 600 0
DWIDTH 5 0
BBX 5 7 0 -2
BITMAP
58
58
58
70
E0
C0
00
ENDCHAR

STARTCHAR pefinal
ENCODING 243
SWIDTH 480 0
DWIDTH 4 0
BBX 4 7 0 -1
BITMAP
00
F0
F0
90
20
20
40
ENDCHAR

STARTCHAR pe
ENCODING 244
SWIDTH 600 0
DWIDTH 5 0
BBX 5 5 0 0
BITMAP
78
78
48
10
F0
ENDCHAR

STARTCHAR zadikfinal
ENCODING 245
SWIDTH 480 0
DWIDTH 4 0
BBX 4 7 0 -1
BITMAP
00
50
50
60
40
C0
C0
ENDCHAR

STARTCHAR zadik
ENCODING 246
SWIDTH 600 0
DWIDTH 5 0
BBX 5 5 0 0
BITMAP
58
58
30
10
F0
ENDCHAR

STARTCHAR kof
ENCODING 247
SWIDTH 600 0
DWIDTH 5 0
BBX 5 7 0 -1
BITMAP
00
78
18
50
B0
A0
80
ENDCHAR

STARTCHAR resh
ENCODING 248
SWIDTH 480 0
DWIDTH 4 0
BBX 4 6 0 0
BITMAP
00
70
70
10
20
20
ENDCHAR

STARTCHAR shin
ENCODING 249
SWIDTH 720 0
DWIDTH 6 0
BBX 6 5 0 0
BITMAP
54
54
54
F8
F8
ENDCHAR

STARTCHAR taf
ENCODING 250
SWIDTH 600 0
DWIDTH 5 0
BBX 5 5 0 0
BITMAP
38
38
28
D0
D0
ENDCHAR
ENDFONT
